<?xml version="1.0" encoding="UTF-8"?>
<svg version="1.1" xmlns="http://www.w3.org/2000/svg" width="1600" height="896">
<path d="M0,0 L699,0 L699,1 L703,1 L703,2 L710,2 L710,3 L713,3 L713,4 L719,4 L719,5 L722,5 L722,6 L725,6 L725,7 L727,7 L727,8 L730,8 L730,9 L732,9 L732,10 L735,10 L735,11 L736,11 L736,12 L739,12 L739,13 L741,13 L741,14 L743,14 L743,15 L744,15 L744,16 L746,16 L746,17 L748,17 L748,18 L750,18 L750,19 L751,19 L751,20 L752,20 L752,21 L754,21 L754,22 L755,22 L755,23 L757,23 L757,24 L758,24 L758,25 L759,25 L759,26 L760,26 L760,27 L762,27 L762,29 L764,29 L764,30 L765,30 L765,31 L766,31 L766,32 L767,32 L767,33 L768,33 L768,34 L769,34 L769,35 L770,35 L770,36 L771,36 L771,37 L772,37 L772,38 L773,38 L773,39 L774,39 L774,40 L775,40 L775,41 L776,41 L776,42 L777,42 L777,43 L778,43 L778,45 L779,45 L779,46 L780,46 L780,47 L781,47 L781,48 L782,48 L782,50 L783,50 L783,51 L784,51 L784,53 L785,53 L785,54 L786,54 L786,56 L787,56 L787,57 L788,57 L788,59 L789,59 L789,61 L790,61 L790,62 L791,62 L791,65 L792,65 L792,66 L793,66 L793,69 L794,69 L794,70 L795,70 L795,73 L796,73 L796,75 L797,75 L797,78 L798,78 L798,80 L799,80 L799,84 L800,84 L800,86 L801,86 L801,91 L802,91 L802,94 L803,94 L803,102 L804,102 L804,106 L805,106 L805,511 L804,511 L804,513 L803,513 L803,516 L802,516 L802,517 L801,517 L801,519 L800,519 L800,520 L799,520 L799,521 L798,521 L798,522 L797,522 L797,523 L796,523 L796,524 L795,524 L795,525 L794,525 L794,526 L791,526 L791,527 L789,527 L789,528 L785,528 L785,529 L777,529 L777,528 L772,528 L772,527 L770,527 L770,526 L768,526 L768,525 L767,525 L767,524 L765,524 L765,523 L764,523 L764,522 L763,522 L763,521 L762,521 L762,520 L761,520 L761,518 L760,518 L760,517 L759,517 L759,514 L758,514 L758,512 L757,512 L757,506 L756,506 L756,112 L755,112 L755,111 L754,111 L754,108 L755,108 L755,105 L754,105 L754,102 L753,102 L753,98 L752,98 L752,96 L751,96 L751,92 L750,92 L750,91 L749,91 L749,88 L748,88 L748,86 L747,86 L747,84 L746,84 L746,83 L745,83 L745,81 L744,81 L744,80 L743,80 L743,78 L742,78 L742,77 L741,77 L741,76 L740,76 L740,75 L739,75 L739,74 L738,74 L738,73 L737,73 L737,71 L736,71 L736,70 L735,70 L735,69 L734,69 L734,68 L733,68 L733,67 L732,67 L732,66 L730,66 L730,65 L729,65 L729,64 L728,64 L728,63 L726,63 L726,62 L725,62 L725,61 L724,61 L724,60 L722,60 L722,59 L721,59 L721,58 L718,58 L718,57 L717,57 L717,56 L713,56 L713,55 L712,55 L712,54 L709,54 L709,53 L707,53 L707,52 L702,52 L702,51 L698,51 L698,50 L298,50 L298,49 L285,49 L285,50 L2,50 L2,51 L-2,51 L-2,52 L-7,52 L-7,53 L-9,53 L-9,54 L-13,54 L-13,55 L-14,55 L-14,56 L-18,56 L-18,57 L-19,57 L-19,58 L-22,58 L-22,59 L-23,59 L-23,60 L-25,60 L-25,61 L-26,61 L-26,62 L-27,62 L-27,63 L-29,63 L-29,64 L-30,64 L-30,65 L-31,65 L-31,66 L-32,66 L-32,67 L-33,67 L-33,68 L-34,68 L-34,69 L-35,69 L-35,70 L-36,70 L-36,71 L-37,71 L-37,72 L-38,72 L-38,73 L-39,73 L-39,74 L-40,74 L-40,75 L-41,75 L-41,77 L-43,77 L-43,79 L-44,79 L-44,80 L-45,80 L-45,82 L-46,82 L-46,83 L-47,83 L-47,85 L-48,85 L-48,87 L-49,87 L-49,89 L-50,89 L-50,91 L-51,91 L-51,93 L-52,93 L-52,96 L-53,96 L-53,98 L-54,98 L-54,102 L-55,102 L-55,105 L-56,105 L-56,113 L-57,113 L-57,175 L-56,175 L-56,178 L-57,178 L-57,266 L-56,266 L-56,269 L-57,269 L-57,275 L-56,275 L-56,276 L-57,276 L-57,301 L-56,301 L-56,305 L-57,305 L-57,509 L-58,509 L-58,514 L-59,514 L-59,515 L-60,515 L-60,518 L-61,518 L-61,519 L-62,519 L-62,520 L-63,520 L-63,521 L-64,521 L-64,522 L-65,522 L-65,523 L-66,523 L-66,524 L-67,524 L-67,525 L-68,525 L-68,526 L-71,526 L-71,527 L-73,527 L-73,528 L-77,528 L-77,529 L-85,529 L-85,528 L-90,528 L-90,527 L-92,527 L-92,526 L-94,526 L-94,525 L-95,525 L-95,524 L-97,524 L-97,523 L-98,523 L-98,522 L-99,522 L-99,521 L-100,521 L-100,520 L-101,520 L-101,518 L-102,518 L-102,517 L-103,517 L-103,515 L-104,515 L-104,512 L-105,512 L-105,508 L-106,508 L-106,505 L-107,505 L-107,450 L-106,450 L-106,409 L-107,409 L-107,398 L-106,398 L-106,110 L-105,110 L-105,102 L-104,102 L-104,97 L-105,97 L-105,95 L-103,95 L-103,92 L-102,92 L-102,88 L-101,88 L-101,84 L-100,84 L-100,82 L-99,82 L-99,79 L-98,79 L-98,76 L-97,76 L-97,73 L-96,73 L-96,72 L-95,72 L-95,69 L-94,69 L-94,68 L-93,68 L-93,65 L-92,65 L-92,64 L-91,64 L-91,61 L-90,61 L-90,60 L-89,60 L-89,58 L-88,58 L-88,57 L-87,57 L-87,55 L-86,55 L-86,53 L-85,53 L-85,52 L-84,52 L-84,50 L-83,50 L-83,49 L-82,49 L-82,48 L-81,48 L-81,46 L-80,46 L-80,45 L-79,45 L-79,44 L-78,44 L-78,43 L-77,43 L-77,41 L-76,41 L-76,40 L-75,40 L-75,39 L-74,39 L-74,38 L-73,38 L-73,37 L-72,37 L-72,36 L-71,36 L-71,35 L-70,35 L-70,34 L-69,34 L-69,33 L-68,33 L-68,32 L-67,32 L-67,31 L-66,31 L-66,30 L-65,30 L-65,29 L-63,29 L-63,28 L-62,28 L-62,27 L-61,27 L-61,26 L-60,26 L-60,25 L-58,25 L-58,24 L-57,24 L-57,23 L-56,23 L-56,22 L-55,22 L-55,21 L-53,21 L-53,20 L-52,20 L-52,19 L-50,19 L-50,18 L-49,18 L-49,17 L-47,17 L-47,16 L-45,16 L-45,15 L-43,15 L-43,14 L-41,14 L-41,13 L-39,13 L-39,12 L-37,12 L-37,11 L-35,11 L-35,10 L-33,10 L-33,9 L-31,9 L-31,8 L-28,8 L-28,7 L-26,7 L-26,6 L-22,6 L-22,5 L-20,5 L-20,4 L-14,4 L-14,3 L-11,3 L-11,2 L-4,2 L-4,1 L0,1 Z " fill="#000000" transform="translate(452,125)"/>
<path d="M0,0 L22,0 L22,1 L28,1 L28,2 L33,2 L33,3 L37,3 L37,4 L42,4 L42,5 L46,5 L46,6 L50,6 L50,7 L54,7 L54,8 L59,8 L59,9 L64,9 L64,10 L71,10 L71,11 L80,11 L80,12 L93,12 L93,11 L101,11 L101,10 L106,10 L106,9 L110,9 L110,8 L114,8 L114,7 L117,7 L117,6 L120,6 L120,5 L122,5 L122,4 L125,4 L125,3 L128,3 L128,2 L130,2 L130,1 L133,1 L133,0 L136,0 L136,1 L137,1 L137,3 L138,3 L138,5 L139,5 L139,8 L140,8 L140,10 L139,10 L139,11 L137,11 L137,12 L135,12 L135,13 L133,13 L133,14 L131,14 L131,15 L129,15 L129,16 L127,16 L127,17 L126,17 L126,18 L124,18 L124,19 L122,19 L122,20 L120,20 L120,21 L118,21 L118,22 L117,22 L117,23 L115,23 L115,24 L113,24 L113,25 L112,25 L112,26 L110,26 L110,27 L109,27 L109,28 L107,28 L107,29 L106,29 L106,30 L104,30 L104,31 L103,31 L103,32 L102,32 L102,33 L100,33 L100,34 L99,34 L99,35 L98,35 L98,36 L96,36 L96,37 L95,37 L95,38 L94,38 L94,39 L93,39 L93,40 L92,40 L92,41 L91,41 L91,42 L90,42 L90,43 L88,43 L88,44 L87,44 L87,46 L86,46 L86,47 L85,47 L85,48 L84,48 L84,49 L83,49 L83,50 L82,50 L82,52 L81,52 L81,53 L80,53 L80,54 L79,54 L79,56 L78,56 L78,58 L77,58 L77,60 L76,60 L76,62 L75,62 L75,64 L74,64 L74,66 L73,66 L73,69 L72,69 L72,72 L71,72 L71,75 L70,75 L70,79 L69,79 L69,84 L68,84 L68,91 L67,91 L67,198 L66,198 L66,211 L65,211 L65,218 L64,218 L64,223 L63,223 L63,227 L62,227 L62,230 L61,230 L61,233 L60,233 L60,235 L59,235 L59,237 L58,237 L58,239 L57,239 L57,241 L56,241 L56,243 L55,243 L55,245 L54,245 L54,246 L53,246 L53,248 L52,248 L52,249 L51,249 L51,250 L50,250 L50,252 L49,252 L49,253 L48,253 L48,254 L47,254 L47,256 L46,256 L46,257 L45,257 L45,258 L44,258 L44,259 L43,259 L43,261 L42,261 L42,262 L41,262 L41,263 L40,263 L40,264 L43,264 L43,263 L45,263 L45,262 L47,262 L47,261 L49,261 L49,260 L51,260 L51,259 L53,259 L53,258 L55,258 L55,257 L56,257 L56,256 L58,256 L58,255 L60,255 L60,254 L61,254 L61,253 L63,253 L63,252 L64,252 L64,251 L66,251 L66,250 L67,250 L67,249 L69,249 L69,248 L70,248 L70,247 L71,247 L71,246 L73,246 L73,245 L74,245 L74,244 L75,244 L75,243 L76,243 L76,242 L77,242 L77,241 L78,241 L78,240 L79,240 L79,239 L80,239 L80,238 L81,238 L81,237 L82,237 L82,235 L83,235 L83,234 L84,234 L84,233 L85,233 L85,231 L86,231 L86,229 L87,229 L87,227 L88,227 L88,225 L89,225 L89,223 L90,223 L90,220 L91,220 L91,217 L92,217 L92,214 L93,214 L93,209 L94,209 L94,204 L95,204 L95,195 L96,195 L96,101 L97,101 L97,89 L98,89 L98,81 L99,81 L99,76 L100,76 L100,71 L101,71 L101,68 L102,68 L102,65 L103,65 L103,62 L104,62 L104,60 L105,60 L105,58 L106,58 L106,56 L107,56 L107,55 L108,55 L108,53 L109,53 L109,52 L110,52 L110,50 L111,50 L111,49 L112,49 L112,48 L113,48 L113,47 L114,47 L114,46 L115,46 L115,45 L116,45 L116,44 L117,44 L117,43 L118,43 L118,42 L119,42 L119,41 L120,41 L120,40 L121,40 L121,39 L122,39 L122,38 L124,38 L124,37 L125,37 L125,36 L126,36 L126,35 L128,35 L128,34 L129,34 L129,33 L131,33 L131,32 L133,32 L133,31 L134,31 L134,30 L136,30 L136,29 L138,29 L138,28 L140,28 L140,27 L142,27 L142,26 L145,26 L145,25 L147,25 L147,24 L149,24 L149,23 L151,23 L151,22 L154,22 L154,21 L156,21 L156,20 L159,20 L159,19 L161,19 L161,18 L164,18 L164,17 L167,17 L167,16 L169,16 L169,15 L172,15 L172,14 L175,14 L175,13 L178,13 L178,12 L181,12 L181,11 L183,11 L183,10 L186,10 L186,9 L189,9 L189,8 L192,8 L192,7 L195,7 L195,6 L198,6 L198,5 L201,5 L201,4 L204,4 L204,3 L207,3 L207,2 L210,2 L210,1 L214,1 L214,0 L221,0 L221,1 L224,1 L224,2 L227,2 L227,3 L230,3 L230,4 L232,4 L232,5 L234,5 L234,6 L236,6 L236,7 L238,7 L238,8 L240,8 L240,9 L241,9 L241,10 L243,10 L243,11 L244,11 L244,12 L246,12 L246,13 L247,13 L247,14 L248,14 L248,15 L249,15 L249,16 L250,16 L250,17 L251,17 L251,18 L252,18 L252,19 L253,19 L253,20 L254,20 L254,22 L255,22 L255,23 L256,23 L256,24 L257,24 L257,26 L258,26 L258,28 L259,28 L259,29 L260,29 L260,31 L261,31 L261,34 L262,34 L262,36 L263,36 L263,40 L264,40 L264,44 L265,44 L265,60 L264,60 L264,65 L263,65 L263,69 L262,69 L262,72 L261,72 L261,74 L260,74 L260,76 L259,76 L259,78 L258,78 L258,80 L257,80 L257,82 L256,82 L256,84 L255,84 L255,85 L254,85 L254,87 L253,87 L253,88 L252,88 L252,90 L251,90 L251,91 L250,91 L250,92 L249,92 L249,94 L248,94 L248,95 L247,95 L247,96 L246,96 L246,97 L245,97 L245,98 L244,98 L244,99 L243,99 L243,100 L242,100 L242,102 L241,102 L241,103 L240,103 L240,104 L239,104 L239,105 L238,105 L238,106 L237,106 L237,107 L235,107 L235,108 L234,108 L234,109 L233,109 L233,110 L232,110 L232,111 L231,111 L231,112 L230,112 L230,113 L229,113 L229,114 L228,114 L228,115 L227,115 L227,116 L225,116 L225,117 L224,117 L224,118 L223,118 L223,119 L222,119 L222,120 L221,120 L221,121 L219,121 L219,122 L218,122 L218,123 L217,123 L217,124 L216,124 L216,125 L214,125 L214,126 L213,126 L213,127 L212,127 L212,128 L211,128 L211,129 L219,129 L219,130 L225,130 L225,131 L231,131 L231,132 L235,132 L235,133 L239,133 L239,134 L242,134 L242,135 L245,135 L245,136 L247,136 L247,137 L249,137 L249,138 L251,138 L251,139 L253,139 L253,140 L255,140 L255,141 L256,141 L256,142 L257,142 L257,143 L259,143 L259,144 L260,144 L260,145 L261,145 L261,146 L262,146 L262,147 L263,147 L263,149 L264,149 L264,150 L265,150 L265,151 L266,151 L266,153 L267,153 L267,155 L268,155 L268,157 L269,157 L269,161 L270,161 L270,165 L271,165 L271,172 L272,172 L272,260 L265,260 L265,261 L258,261 L258,262 L252,262 L252,263 L247,263 L247,264 L243,264 L243,265 L238,265 L238,266 L234,266 L234,267 L231,267 L231,268 L227,268 L227,269 L224,269 L224,270 L221,270 L221,271 L218,271 L218,272 L215,272 L215,273 L212,273 L212,274 L210,274 L210,275 L207,275 L207,276 L205,276 L205,277 L202,277 L202,278 L200,278 L200,279 L198,279 L198,280 L195,280 L195,281 L193,281 L193,282 L191,282 L191,283 L189,283 L189,284 L187,284 L187,285 L185,285 L185,286 L184,286 L184,287 L182,287 L182,288 L180,288 L180,289 L178,289 L178,290 L176,290 L176,291 L175,291 L175,292 L173,292 L173,293 L172,293 L172,294 L170,294 L170,295 L168,295 L168,296 L167,296 L167,297 L165,297 L165,298 L164,298 L164,299 L162,299 L162,300 L161,300 L161,301 L160,301 L160,302 L158,302 L158,303 L157,303 L157,304 L156,304 L156,305 L154,305 L154,306 L153,306 L153,307 L152,307 L152,308 L151,308 L151,309 L149,309 L149,310 L148,310 L148,311 L147,311 L147,310 L146,310 L146,309 L144,309 L144,308 L143,308 L143,307 L141,307 L141,306 L139,306 L139,305 L138,305 L138,304 L136,304 L136,303 L134,303 L134,302 L133,302 L133,301 L131,301 L131,300 L129,300 L129,299 L127,299 L127,298 L125,298 L125,297 L122,297 L122,296 L120,296 L120,295 L117,295 L117,294 L115,294 L115,293 L111,293 L111,292 L108,292 L108,291 L105,291 L105,290 L101,290 L101,289 L96,289 L96,288 L91,288 L91,287 L86,287 L86,286 L77,286 L77,285 L41,285 L41,286 L34,286 L34,287 L29,287 L29,288 L25,288 L25,289 L22,289 L22,290 L19,290 L19,291 L16,291 L16,292 L14,292 L14,293 L11,293 L11,294 L9,294 L9,295 L7,295 L7,296 L5,296 L5,297 L4,297 L4,298 L2,298 L2,299 L1,299 L1,300 L-1,300 L-1,301 L-2,301 L-2,302 L-4,302 L-4,303 L-5,303 L-5,304 L-6,304 L-6,305 L-7,305 L-7,306 L-8,306 L-8,307 L-9,307 L-9,308 L-10,308 L-10,310 L-11,310 L-11,311 L-12,311 L-12,313 L-13,313 L-13,316 L-14,316 L-14,320 L-13,320 L-13,323 L-12,323 L-12,325 L-11,325 L-11,327 L-10,327 L-10,329 L-9,329 L-9,331 L-8,331 L-8,333 L-7,333 L-7,335 L-6,335 L-6,339 L-5,339 L-5,343 L-6,343 L-6,346 L-7,346 L-7,347 L-8,347 L-8,349 L-10,349 L-10,350 L-11,350 L-11,351 L-21,351 L-21,350 L-23,350 L-23,349 L-24,349 L-24,348 L-25,348 L-25,347 L-26,347 L-26,346 L-27,346 L-27,345 L-28,345 L-28,343 L-29,343 L-29,341 L-30,341 L-30,338 L-31,338 L-31,326 L-30,326 L-30,322 L-29,322 L-29,319 L-28,319 L-28,317 L-27,317 L-27,315 L-26,315 L-26,313 L-25,313 L-25,311 L-24,311 L-24,310 L-23,310 L-23,308 L-22,308 L-22,307 L-21,307 L-21,305 L-20,305 L-20,304 L-19,304 L-19,303 L-18,303 L-18,302 L-17,302 L-17,300 L-16,300 L-16,299 L-15,299 L-15,298 L-14,298 L-14,297 L-13,297 L-13,296 L-12,296 L-12,295 L-11,295 L-11,293 L-10,293 L-10,292 L-9,292 L-9,291 L-8,291 L-8,290 L-7,290 L-7,289 L-6,289 L-6,288 L-5,288 L-5,287 L-4,287 L-4,286 L-3,286 L-3,285 L-2,285 L-2,284 L-1,284 L-1,283 L0,283 L0,282 L1,282 L1,281 L2,281 L2,280 L3,280 L3,279 L4,279 L4,278 L5,278 L5,277 L6,277 L6,276 L7,276 L7,275 L8,275 L8,273 L9,273 L9,272 L10,272 L10,271 L11,271 L11,270 L12,270 L12,269 L13,269 L13,268 L14,268 L14,267 L15,267 L15,266 L16,266 L16,264 L17,264 L17,263 L18,263 L18,262 L19,262 L19,261 L20,261 L20,259 L21,259 L21,258 L22,258 L22,256 L23,256 L23,254 L24,254 L24,253 L25,253 L25,250 L26,250 L26,248 L27,248 L27,244 L28,244 L28,235 L27,235 L27,232 L26,232 L26,230 L25,230 L25,228 L24,228 L24,227 L23,227 L23,226 L22,226 L22,225 L21,225 L21,224 L20,224 L20,223 L18,223 L18,222 L16,222 L16,221 L14,221 L14,220 L1,220 L1,221 L-2,221 L-2,222 L-4,222 L-4,223 L-5,223 L-5,224 L-6,224 L-6,225 L-7,225 L-7,226 L-8,226 L-8,227 L-9,227 L-9,229 L-10,229 L-10,231 L-11,231 L-11,233 L-12,233 L-12,236 L-13,236 L-13,240 L-14,240 L-14,239 L-21,239 L-21,238 L-22,238 L-22,228 L-21,228 L-21,222 L-20,222 L-20,219 L-19,219 L-19,216 L-18,216 L-18,214 L-17,214 L-17,212 L-16,212 L-16,211 L-15,211 L-15,209 L-14,209 L-14,208 L-13,208 L-13,207 L-12,207 L-12,206 L-11,206 L-11,205 L-10,205 L-10,204 L-9,204 L-9,203 L-8,203 L-8,202 L-7,202 L-7,201 L-5,201 L-5,200 L-4,200 L-4,199 L-2,199 L-2,198 L0,198 L0,197 L3,197 L3,196 L6,196 L6,195 L10,195 L10,194 L28,194 L28,191 L27,191 L27,180 L26,180 L26,175 L25,175 L25,172 L24,172 L24,169 L23,169 L23,167 L22,167 L22,166 L21,166 L21,164 L20,164 L20,163 L19,163 L19,162 L18,162 L18,161 L17,161 L17,160 L16,160 L16,159 L15,159 L15,158 L14,158 L14,157 L13,157 L13,156 L11,156 L11,155 L9,155 L9,154 L7,154 L7,153 L3,153 L3,152 L-14,152 L-14,153 L-17,153 L-17,154 L-19,154 L-19,155 L-22,155 L-22,156 L-23,156 L-23,157 L-25,157 L-25,158 L-26,158 L-26,159 L-27,159 L-27,160 L-28,160 L-28,161 L-29,161 L-29,162 L-30,162 L-30,164 L-31,164 L-31,165 L-32,165 L-32,167 L-33,167 L-33,169 L-34,169 L-34,171 L-35,171 L-35,170 L-41,170 L-41,169 L-43,169 L-43,163 L-42,163 L-42,159 L-41,159 L-41,155 L-40,155 L-40,152 L-39,152 L-39,150 L-38,150 L-38,148 L-37,148 L-37,146 L-36,146 L-36,145 L-35,145 L-35,143 L-34,143 L-34,142 L-33,142 L-33,140 L-32,140 L-32,139 L-31,139 L-31,138 L-30,138 L-30,137 L-29,137 L-29,136 L-28,136 L-28,135 L-27,135 L-27,134 L-25,134 L-25,133 L-24,133 L-24,132 L-23,132 L-23,131 L-21,131 L-21,130 L-19,130 L-19,129 L-18,129 L-18,128 L-15,128 L-15,127 L-13,127 L-13,126 L-10,126 L-10,125 L-5,125 L-5,124 L23,124 L23,125 L25,125 L25,107 L26,107 L26,98 L27,98 L27,92 L28,92 L28,87 L29,87 L29,84 L30,84 L30,81 L31,81 L31,79 L32,79 L32,76 L33,76 L33,74 L34,74 L34,73 L35,73 L35,71 L36,71 L36,69 L37,69 L37,68 L38,68 L38,66 L39,66 L39,65 L40,65 L40,64 L41,64 L41,63 L42,63 L42,61 L43,61 L43,60 L44,60 L44,59 L45,59 L45,58 L46,58 L46,57 L47,57 L47,56 L48,56 L48,55 L49,55 L49,54 L51,54 L51,53 L52,53 L52,52 L53,52 L53,51 L54,51 L54,50 L55,50 L55,49 L57,49 L57,48 L58,48 L58,47 L59,47 L59,46 L61,46 L61,45 L62,45 L62,44 L63,44 L63,43 L65,43 L65,42 L66,42 L66,41 L67,41 L67,40 L69,40 L69,39 L70,39 L70,38 L72,38 L72,37 L73,37 L73,36 L75,36 L75,35 L76,35 L76,34 L78,34 L78,33 L79,33 L79,32 L76,32 L76,33 L72,33 L72,34 L68,34 L68,35 L64,35 L64,36 L59,36 L59,37 L52,37 L52,38 L39,38 L39,39 L38,39 L38,38 L25,38 L25,37 L18,37 L18,36 L13,36 L13,35 L8,35 L8,34 L3,34 L3,33 L-3,33 L-3,32 L-17,32 L-17,33 L-20,33 L-20,34 L-22,34 L-22,35 L-24,35 L-24,36 L-25,36 L-25,37 L-26,37 L-26,38 L-27,38 L-27,39 L-28,39 L-28,40 L-29,40 L-29,42 L-30,42 L-30,44 L-31,44 L-31,46 L-32,46 L-32,49 L-33,49 L-33,54 L-34,54 L-34,59 L-43,59 L-43,49 L-42,49 L-42,43 L-41,43 L-41,38 L-40,38 L-40,35 L-39,35 L-39,32 L-38,32 L-38,29 L-37,29 L-37,27 L-36,27 L-36,25 L-35,25 L-35,24 L-34,24 L-34,22 L-33,22 L-33,21 L-32,21 L-32,19 L-31,19 L-31,18 L-30,18 L-30,17 L-29,17 L-29,16 L-28,16 L-28,15 L-27,15 L-27,14 L-26,14 L-26,13 L-25,13 L-25,12 L-24,12 L-24,11 L-22,11 L-22,10 L-21,10 L-21,9 L-20,9 L-20,8 L-18,8 L-18,7 L-16,7 L-16,6 L-14,6 L-14,5 L-12,5 L-12,4 L-10,4 L-10,3 L-7,3 L-7,2 L-4,2 L-4,1 L0,1 Z M181,21 L181,22 L179,22 L179,23 L177,23 L177,24 L175,24 L175,25 L173,25 L173,26 L171,26 L171,27 L169,27 L169,28 L167,28 L167,29 L165,29 L165,30 L163,30 L163,31 L162,31 L162,32 L160,32 L160,33 L158,33 L158,34 L157,34 L157,35 L156,35 L156,36 L154,36 L154,37 L153,37 L153,38 L152,38 L152,39 L151,39 L151,40 L150,40 L150,41 L149,41 L149,42 L148,42 L148,43 L147,43 L147,45 L146,45 L146,46 L145,46 L145,48 L144,48 L144,50 L143,50 L143,53 L142,53 L142,56 L141,56 L141,60 L140,60 L140,69 L139,69 L139,183 L138,183 L138,193 L137,193 L137,198 L136,198 L136,202 L135,202 L135,205 L134,205 L134,207 L133,207 L133,209 L132,209 L132,211 L131,211 L131,213 L130,213 L130,214 L129,214 L129,216 L128,216 L128,217 L127,217 L127,219 L126,219 L126,220 L125,220 L125,221 L124,221 L124,222 L123,222 L123,223 L122,223 L122,224 L121,224 L121,225 L120,225 L120,226 L119,226 L119,227 L118,227 L118,228 L117,228 L117,229 L116,229 L116,230 L114,230 L114,231 L113,231 L113,232 L112,232 L112,233 L111,233 L111,234 L109,234 L109,235 L108,235 L108,236 L106,236 L106,237 L105,237 L105,238 L104,238 L104,239 L102,239 L102,240 L101,240 L101,241 L99,241 L99,242 L98,242 L98,243 L96,243 L96,244 L95,244 L95,245 L93,245 L93,246 L91,246 L91,247 L90,247 L90,248 L88,248 L88,249 L87,249 L87,250 L85,250 L85,251 L83,251 L83,252 L82,252 L82,253 L80,253 L80,254 L78,254 L78,255 L77,255 L77,256 L86,256 L86,255 L127,255 L127,256 L135,256 L135,257 L142,257 L142,258 L147,258 L147,259 L151,259 L151,260 L155,260 L155,261 L158,261 L158,262 L160,262 L160,92 L170,92 L170,145 L171,145 L171,144 L172,144 L172,143 L174,143 L174,142 L175,142 L175,141 L177,141 L177,140 L178,140 L178,139 L180,139 L180,138 L181,138 L181,137 L183,137 L183,136 L184,136 L184,135 L186,135 L186,134 L187,134 L187,133 L188,133 L188,132 L189,132 L189,131 L191,131 L191,130 L192,130 L192,129 L193,129 L193,128 L194,128 L194,127 L196,127 L196,126 L197,126 L197,125 L198,125 L198,124 L199,124 L199,123 L200,123 L200,122 L201,122 L201,121 L202,121 L202,120 L203,120 L203,119 L204,119 L204,118 L205,118 L205,117 L206,117 L206,116 L207,116 L207,115 L208,115 L208,113 L209,113 L209,112 L210,112 L210,111 L211,111 L211,109 L212,109 L212,108 L213,108 L213,107 L214,107 L214,105 L215,105 L215,103 L216,103 L216,102 L217,102 L217,100 L218,100 L218,98 L219,98 L219,95 L220,95 L220,93 L221,93 L221,90 L222,90 L222,86 L223,86 L223,81 L224,81 L224,64 L223,64 L223,60 L222,60 L222,56 L221,56 L221,54 L220,54 L220,52 L219,52 L219,50 L218,50 L218,48 L217,48 L217,47 L216,47 L216,45 L215,45 L215,44 L214,44 L214,43 L213,43 L213,42 L212,42 L212,40 L211,40 L211,39 L210,39 L210,38 L208,38 L208,37 L207,37 L207,36 L206,36 L206,35 L205,35 L205,34 L204,34 L204,33 L202,33 L202,32 L201,32 L201,31 L199,31 L199,30 L198,30 L198,29 L196,29 L196,28 L195,28 L195,27 L193,27 L193,26 L191,26 L191,25 L189,25 L189,24 L187,24 L187,23 L185,23 L185,22 L183,22 L183,21 Z M79,31 L79,32 L81,32 L81,31 Z M199,137 L199,138 L197,138 L197,139 L196,139 L196,140 L194,140 L194,141 L193,141 L193,142 L191,142 L191,143 L189,143 L189,144 L188,144 L188,145 L186,145 L186,146 L185,146 L185,147 L183,147 L183,148 L182,148 L182,149 L180,149 L180,150 L178,150 L178,151 L177,151 L177,152 L175,152 L175,153 L173,153 L173,154 L172,154 L172,155 L170,155 L170,175 L173,175 L173,176 L176,176 L176,177 L180,177 L180,178 L184,178 L184,179 L189,179 L189,180 L211,180 L211,179 L216,179 L216,178 L220,178 L220,177 L223,177 L223,176 L227,176 L227,175 L229,175 L229,165 L228,165 L228,161 L227,161 L227,159 L226,159 L226,156 L225,156 L225,155 L224,155 L224,153 L223,153 L223,152 L222,152 L222,151 L221,151 L221,150 L220,150 L220,149 L219,149 L219,148 L218,148 L218,147 L217,147 L217,146 L216,146 L216,145 L214,145 L214,144 L213,144 L213,143 L211,143 L211,142 L209,142 L209,141 L208,141 L208,140 L206,140 L206,139 L204,139 L204,138 L202,138 L202,137 Z M170,185 L170,220 L171,220 L171,219 L173,219 L173,218 L176,218 L176,217 L178,217 L178,216 L181,216 L181,215 L184,215 L184,214 L189,214 L189,213 L209,213 L209,214 L214,214 L214,215 L217,215 L217,216 L220,216 L220,217 L223,217 L223,218 L226,218 L226,219 L228,219 L228,220 L230,220 L230,185 L228,185 L228,186 L224,186 L224,187 L221,187 L221,188 L217,188 L217,189 L212,189 L212,190 L200,190 L200,191 L199,191 L199,190 L188,190 L188,189 L182,189 L182,188 L178,188 L178,187 L175,187 L175,186 L172,186 L172,185 Z M189,223 L189,224 L185,224 L185,225 L181,225 L181,226 L179,226 L179,227 L176,227 L176,228 L174,228 L174,229 L172,229 L172,230 L170,230 L170,266 L172,266 L172,267 L174,267 L174,268 L176,268 L176,269 L178,269 L178,270 L180,270 L180,271 L182,271 L182,272 L184,272 L184,273 L185,273 L185,274 L187,274 L187,273 L189,273 L189,272 L190,272 L190,271 L193,271 L193,270 L195,270 L195,269 L197,269 L197,268 L199,268 L199,267 L201,267 L201,266 L204,266 L204,265 L206,265 L206,264 L209,264 L209,263 L212,263 L212,262 L214,262 L214,261 L217,261 L217,260 L221,260 L221,259 L224,259 L224,258 L227,258 L227,257 L230,257 L230,230 L227,230 L227,229 L225,229 L225,228 L222,228 L222,227 L219,227 L219,226 L216,226 L216,225 L212,225 L212,224 L207,224 L207,223 Z M75,256 L75,257 L77,257 L77,256 Z M39,264 L39,265 L40,265 L40,264 Z " fill="#000000" transform="translate(499,325)"/>
<path d="M0,0 L20,0 L20,1 L25,1 L25,2 L29,2 L29,3 L33,3 L33,4 L36,4 L36,5 L39,5 L39,6 L42,6 L42,7 L45,7 L45,8 L48,8 L48,9 L52,9 L52,10 L57,10 L57,11 L76,11 L76,10 L80,10 L80,9 L84,9 L84,8 L87,8 L87,7 L90,7 L90,6 L92,6 L92,5 L94,5 L94,4 L96,4 L96,3 L98,3 L98,2 L100,2 L100,1 L102,1 L102,0 L106,0 L106,1 L108,1 L108,2 L110,2 L110,3 L111,3 L111,4 L112,4 L112,6 L111,6 L111,7 L110,7 L110,9 L109,9 L109,10 L108,10 L108,12 L107,12 L107,14 L106,14 L106,15 L105,15 L105,17 L104,17 L104,19 L103,19 L103,21 L102,21 L102,23 L101,23 L101,25 L100,25 L100,27 L99,27 L99,29 L98,29 L98,31 L97,31 L97,33 L96,33 L96,36 L95,36 L95,38 L94,38 L94,41 L93,41 L93,43 L92,43 L92,46 L91,46 L91,49 L90,49 L90,52 L89,52 L89,55 L88,55 L88,59 L87,59 L87,63 L86,63 L86,66 L85,66 L85,71 L84,71 L84,75 L83,75 L83,80 L82,80 L82,86 L81,86 L81,92 L80,92 L80,100 L79,100 L79,114 L78,114 L78,134 L79,134 L79,191 L78,191 L78,197 L77,197 L77,201 L76,201 L76,204 L75,204 L75,206 L74,206 L74,209 L73,209 L73,211 L72,211 L72,213 L71,213 L71,215 L70,215 L70,216 L69,216 L69,218 L68,218 L68,219 L67,219 L67,221 L66,221 L66,222 L65,222 L65,223 L64,223 L64,224 L63,224 L63,226 L62,226 L62,227 L61,227 L61,228 L60,228 L60,229 L59,229 L59,230 L58,230 L58,231 L57,231 L57,232 L56,232 L56,233 L55,233 L55,234 L54,234 L54,235 L53,235 L53,236 L52,236 L52,237 L51,237 L51,238 L50,238 L50,239 L48,239 L48,240 L47,240 L47,241 L46,241 L46,242 L45,242 L45,243 L44,243 L44,244 L43,244 L43,245 L41,245 L41,246 L40,246 L40,247 L39,247 L39,248 L38,248 L38,249 L37,249 L37,250 L35,250 L35,251 L34,251 L34,252 L33,252 L33,253 L32,253 L32,254 L31,254 L31,255 L29,255 L29,256 L28,256 L28,257 L27,257 L27,258 L26,258 L26,259 L25,259 L25,260 L23,260 L23,261 L22,261 L22,262 L21,262 L21,263 L20,263 L20,264 L19,264 L19,265 L17,265 L17,266 L16,266 L16,267 L15,267 L15,268 L14,268 L14,269 L13,269 L13,270 L11,270 L11,271 L10,271 L10,272 L9,272 L9,273 L8,273 L8,274 L7,274 L7,275 L6,275 L6,276 L4,276 L4,277 L3,277 L3,278 L2,278 L2,279 L4,279 L4,278 L6,278 L6,277 L8,277 L8,276 L10,276 L10,275 L13,275 L13,274 L15,274 L15,273 L17,273 L17,272 L19,272 L19,271 L21,271 L21,270 L24,270 L24,269 L26,269 L26,268 L28,268 L28,267 L30,267 L30,266 L33,266 L33,265 L35,265 L35,264 L37,264 L37,263 L39,263 L39,262 L42,262 L42,261 L44,261 L44,260 L46,260 L46,259 L48,259 L48,258 L50,258 L50,257 L52,257 L52,256 L54,256 L54,255 L56,255 L56,254 L58,254 L58,253 L60,253 L60,252 L61,252 L61,251 L63,251 L63,250 L65,250 L65,249 L67,249 L67,248 L68,248 L68,247 L70,247 L70,246 L71,246 L71,245 L73,245 L73,244 L74,244 L74,243 L75,243 L75,242 L76,242 L76,241 L78,241 L78,240 L79,240 L79,239 L80,239 L80,238 L81,238 L81,237 L82,237 L82,236 L83,236 L83,235 L84,235 L84,234 L85,234 L85,233 L86,233 L86,231 L87,231 L87,230 L88,230 L88,229 L89,229 L89,227 L90,227 L90,226 L91,226 L91,224 L92,224 L92,222 L93,222 L93,220 L94,220 L94,218 L95,218 L95,216 L96,216 L96,214 L97,214 L97,211 L98,211 L98,208 L99,208 L99,204 L100,204 L100,199 L101,199 L101,192 L102,192 L102,130 L101,130 L101,107 L102,107 L102,95 L103,95 L103,88 L104,88 L104,82 L105,82 L105,77 L106,77 L106,73 L107,73 L107,69 L108,69 L108,65 L109,65 L109,61 L110,61 L110,58 L111,58 L111,54 L112,54 L112,51 L113,51 L113,48 L114,48 L114,45 L115,45 L115,43 L116,43 L116,40 L117,40 L117,38 L118,38 L118,35 L119,35 L119,33 L120,33 L120,31 L121,31 L121,29 L122,29 L122,26 L123,26 L123,24 L124,24 L124,22 L125,22 L125,20 L126,20 L126,18 L127,18 L127,16 L128,16 L128,15 L129,15 L129,13 L130,13 L130,11 L131,11 L131,9 L132,9 L132,7 L133,7 L133,6 L134,6 L134,4 L135,4 L135,2 L136,2 L136,0 L140,0 L140,1 L141,1 L141,2 L143,2 L143,3 L145,3 L145,4 L146,4 L146,5 L145,5 L145,7 L144,7 L144,9 L143,9 L143,10 L142,10 L142,12 L141,12 L141,14 L140,14 L140,16 L139,16 L139,18 L138,18 L138,20 L137,20 L137,22 L136,22 L136,23 L135,23 L135,25 L134,25 L134,27 L133,27 L133,30 L132,30 L132,32 L131,32 L131,34 L130,34 L130,36 L129,36 L129,38 L128,38 L128,40 L127,40 L127,43 L126,43 L126,45 L125,45 L125,48 L124,48 L124,50 L123,50 L123,53 L122,53 L122,56 L121,56 L121,60 L120,60 L120,63 L119,63 L119,67 L118,67 L118,71 L117,71 L117,76 L116,76 L116,81 L115,81 L115,87 L114,87 L114,94 L113,94 L113,104 L112,104 L112,106 L114,106 L114,105 L115,105 L115,104 L116,104 L116,103 L117,103 L117,102 L119,102 L119,101 L120,101 L120,100 L121,100 L121,99 L122,99 L122,98 L124,98 L124,97 L125,97 L125,96 L126,96 L126,95 L128,95 L128,94 L129,94 L129,93 L130,93 L130,92 L131,92 L131,91 L133,91 L133,90 L134,90 L134,89 L135,89 L135,88 L136,88 L136,87 L138,87 L138,86 L139,86 L139,85 L140,85 L140,84 L141,84 L141,83 L143,83 L143,82 L144,82 L144,81 L145,81 L145,80 L146,80 L146,79 L148,79 L148,78 L149,78 L149,77 L150,77 L150,76 L152,76 L152,75 L153,75 L153,74 L154,74 L154,73 L155,73 L155,72 L157,72 L157,71 L158,71 L158,70 L159,70 L159,69 L160,69 L160,68 L162,68 L162,67 L163,67 L163,66 L164,66 L164,65 L165,65 L165,64 L167,64 L167,63 L168,63 L168,62 L169,62 L169,61 L170,61 L170,60 L172,60 L172,59 L173,59 L173,58 L174,58 L174,57 L176,57 L176,56 L177,56 L177,55 L178,55 L178,54 L179,54 L179,53 L181,53 L181,52 L182,52 L182,51 L183,51 L183,50 L184,50 L184,49 L186,49 L186,48 L187,48 L187,47 L188,47 L188,46 L191,46 L191,47 L192,47 L192,48 L193,48 L193,49 L194,49 L194,50 L195,50 L195,51 L196,51 L196,52 L197,52 L197,54 L198,54 L198,55 L199,55 L199,56 L200,56 L200,57 L201,57 L201,58 L202,58 L202,59 L203,59 L203,61 L204,61 L204,62 L205,62 L205,63 L206,63 L206,64 L207,64 L207,65 L208,65 L208,66 L209,66 L209,67 L210,67 L210,69 L211,69 L211,70 L212,70 L212,71 L213,71 L213,72 L214,72 L214,73 L215,73 L215,74 L216,74 L216,75 L217,75 L217,77 L218,77 L218,78 L219,78 L219,79 L220,79 L220,80 L221,80 L221,81 L222,81 L222,82 L223,82 L223,84 L224,84 L224,85 L225,85 L225,86 L226,86 L226,87 L227,87 L227,88 L228,88 L228,89 L229,89 L229,90 L230,90 L230,92 L231,92 L231,93 L232,93 L232,94 L233,94 L233,95 L234,95 L234,96 L235,96 L235,97 L236,97 L236,98 L237,98 L237,100 L238,100 L238,102 L237,102 L237,103 L235,103 L235,104 L234,104 L234,105 L232,105 L232,106 L231,106 L231,107 L230,107 L230,108 L228,108 L228,109 L227,109 L227,110 L225,110 L225,111 L224,111 L224,112 L223,112 L223,113 L221,113 L221,114 L220,114 L220,115 L218,115 L218,116 L217,116 L217,117 L216,117 L216,118 L214,118 L214,119 L213,119 L213,120 L211,120 L211,121 L210,121 L210,122 L209,122 L209,123 L207,123 L207,124 L206,124 L206,125 L205,125 L205,126 L203,126 L203,127 L202,127 L202,128 L200,128 L200,129 L199,129 L199,130 L198,130 L198,131 L196,131 L196,132 L195,132 L195,133 L193,133 L193,134 L192,134 L192,135 L191,135 L191,136 L189,136 L189,137 L188,137 L188,138 L186,138 L186,139 L185,139 L185,140 L184,140 L184,141 L182,141 L182,142 L181,142 L181,143 L179,143 L179,144 L178,144 L178,145 L177,145 L177,146 L175,146 L175,147 L174,147 L174,148 L173,148 L173,149 L171,149 L171,150 L170,150 L170,151 L168,151 L168,152 L167,152 L167,153 L166,153 L166,154 L164,154 L164,155 L163,155 L163,156 L161,156 L161,157 L160,157 L160,158 L159,158 L159,159 L158,159 L158,160 L160,160 L160,161 L161,161 L161,162 L163,162 L163,163 L165,163 L165,164 L166,164 L166,165 L168,165 L168,166 L169,166 L169,167 L171,167 L171,168 L172,168 L172,169 L173,169 L173,170 L175,170 L175,171 L176,171 L176,172 L177,172 L177,173 L179,173 L179,174 L180,174 L180,175 L181,175 L181,176 L182,176 L182,177 L183,177 L183,178 L184,178 L184,179 L185,179 L185,180 L186,180 L186,181 L187,181 L187,182 L188,182 L188,183 L189,183 L189,184 L190,184 L190,185 L191,185 L191,186 L192,186 L192,187 L193,187 L193,188 L194,188 L194,189 L195,189 L195,191 L196,191 L196,192 L197,192 L197,193 L198,193 L198,194 L199,194 L199,196 L200,196 L200,197 L201,197 L201,198 L202,198 L202,200 L203,200 L203,201 L204,201 L204,203 L205,203 L205,204 L206,204 L206,205 L207,205 L207,207 L208,207 L208,208 L209,208 L209,210 L210,210 L210,211 L211,211 L211,213 L212,213 L212,214 L213,214 L213,216 L214,216 L214,218 L215,218 L215,219 L216,219 L216,221 L217,221 L217,222 L218,222 L218,224 L219,224 L219,226 L220,226 L220,227 L221,227 L221,229 L222,229 L222,231 L223,231 L223,232 L224,232 L224,234 L225,234 L225,236 L226,236 L226,237 L227,237 L227,239 L228,239 L228,241 L229,241 L229,242 L230,242 L230,244 L231,244 L231,246 L232,246 L232,247 L233,247 L233,249 L234,249 L234,251 L235,251 L235,252 L236,252 L236,254 L237,254 L237,255 L238,255 L238,257 L239,257 L239,259 L240,259 L240,260 L241,260 L241,262 L242,262 L242,263 L243,263 L243,264 L244,264 L244,266 L245,266 L245,267 L246,267 L246,268 L247,268 L247,269 L249,269 L249,270 L255,270 L255,269 L257,269 L257,268 L258,268 L258,267 L259,267 L259,266 L261,266 L261,265 L262,265 L262,264 L263,264 L263,263 L264,263 L264,262 L265,262 L265,261 L266,261 L266,260 L267,260 L267,259 L268,259 L268,258 L269,258 L269,257 L270,257 L270,256 L271,256 L271,255 L272,255 L272,254 L273,254 L273,253 L276,253 L276,254 L277,254 L277,255 L278,255 L278,256 L279,256 L279,257 L280,257 L280,259 L281,259 L281,260 L282,260 L282,261 L281,261 L281,262 L280,262 L280,263 L279,263 L279,264 L278,264 L278,265 L277,265 L277,266 L276,266 L276,267 L275,267 L275,268 L274,268 L274,269 L273,269 L273,270 L272,270 L272,271 L271,271 L271,272 L270,272 L270,273 L269,273 L269,274 L268,274 L268,275 L267,275 L267,276 L266,276 L266,277 L265,277 L265,278 L264,278 L264,279 L263,279 L263,280 L262,280 L262,281 L261,281 L261,282 L260,282 L260,283 L259,283 L259,284 L258,284 L258,285 L256,285 L256,286 L255,286 L255,287 L254,287 L254,288 L253,288 L253,289 L252,289 L252,290 L251,290 L251,291 L250,291 L250,292 L249,292 L249,293 L248,293 L248,294 L247,294 L247,295 L246,295 L246,296 L245,296 L245,297 L244,297 L244,298 L243,298 L243,299 L242,299 L242,300 L241,300 L241,301 L240,301 L240,302 L239,302 L239,303 L238,303 L238,304 L237,304 L237,305 L236,305 L236,306 L235,306 L235,307 L234,307 L234,308 L233,308 L233,309 L232,309 L232,310 L228,310 L228,309 L227,309 L227,308 L226,308 L226,307 L224,307 L224,306 L223,306 L223,305 L222,305 L222,304 L221,304 L221,303 L220,303 L220,302 L219,302 L219,301 L218,301 L218,300 L217,300 L217,299 L216,299 L216,298 L215,298 L215,297 L214,297 L214,296 L213,296 L213,295 L212,295 L212,293 L211,293 L211,292 L210,292 L210,290 L209,290 L209,289 L208,289 L208,287 L207,287 L207,286 L206,286 L206,284 L205,284 L205,282 L204,282 L204,281 L203,281 L203,279 L202,279 L202,277 L201,277 L201,275 L200,275 L200,274 L199,274 L199,272 L198,272 L198,270 L197,270 L197,269 L196,269 L196,267 L195,267 L195,265 L194,265 L194,263 L193,263 L193,261 L192,261 L192,260 L191,260 L191,258 L190,258 L190,256 L189,256 L189,254 L188,254 L188,253 L187,253 L187,251 L186,251 L186,252 L185,252 L185,253 L184,253 L184,254 L183,254 L183,256 L182,256 L182,257 L181,257 L181,258 L180,258 L180,259 L179,259 L179,260 L178,260 L178,261 L177,261 L177,262 L176,262 L176,264 L175,264 L175,265 L174,265 L174,266 L173,266 L173,267 L172,267 L172,268 L171,268 L171,269 L170,269 L170,270 L169,270 L169,272 L168,272 L168,273 L167,273 L167,274 L166,274 L166,275 L165,275 L165,276 L164,276 L164,277 L163,277 L163,278 L162,278 L162,280 L161,280 L161,281 L160,281 L160,282 L159,282 L159,283 L158,283 L158,284 L157,284 L157,285 L156,285 L156,286 L155,286 L155,288 L154,288 L154,289 L153,289 L153,290 L152,290 L152,291 L151,291 L151,292 L150,292 L150,293 L149,293 L149,294 L148,294 L148,296 L147,296 L147,297 L146,297 L146,298 L145,298 L145,299 L144,299 L144,300 L143,300 L143,301 L142,301 L142,302 L141,302 L141,304 L140,304 L140,305 L139,305 L139,306 L138,306 L138,307 L137,307 L137,308 L136,308 L136,309 L135,309 L135,310 L134,310 L134,311 L133,311 L133,310 L131,310 L131,309 L129,309 L129,308 L126,308 L126,307 L124,307 L124,306 L121,306 L121,305 L119,305 L119,304 L116,304 L116,303 L113,303 L113,302 L111,302 L111,301 L108,301 L108,300 L105,300 L105,299 L101,299 L101,298 L98,298 L98,297 L94,297 L94,296 L90,296 L90,295 L86,295 L86,294 L81,294 L81,293 L75,293 L75,292 L67,292 L67,291 L30,291 L30,292 L23,292 L23,293 L17,293 L17,294 L12,294 L12,295 L7,295 L7,296 L3,296 L3,297 L0,297 L0,298 L-4,298 L-4,299 L-7,299 L-7,300 L-10,300 L-10,301 L-13,301 L-13,302 L-16,302 L-16,303 L-18,303 L-18,304 L-21,304 L-21,305 L-24,305 L-24,306 L-26,306 L-26,307 L-29,307 L-29,308 L-31,308 L-31,309 L-34,309 L-34,310 L-36,310 L-36,311 L-37,311 L-37,310 L-38,310 L-38,308 L-39,308 L-39,307 L-40,307 L-40,305 L-41,305 L-41,304 L-42,304 L-42,303 L-43,303 L-43,301 L-44,301 L-44,300 L-43,300 L-43,299 L-42,299 L-42,298 L-40,298 L-40,297 L-39,297 L-39,296 L-38,296 L-38,295 L-37,295 L-37,294 L-35,294 L-35,293 L-34,293 L-34,292 L-33,292 L-33,291 L-32,291 L-32,290 L-31,290 L-31,289 L-29,289 L-29,288 L-28,288 L-28,287 L-27,287 L-27,286 L-26,286 L-26,285 L-25,285 L-25,284 L-24,284 L-24,283 L-22,283 L-22,282 L-21,282 L-21,281 L-20,281 L-20,280 L-19,280 L-19,279 L-18,279 L-18,278 L-17,278 L-17,277 L-16,277 L-16,276 L-15,276 L-15,275 L-14,275 L-14,274 L-13,274 L-13,273 L-12,273 L-12,272 L-11,272 L-11,271 L-9,271 L-9,270 L-8,270 L-8,269 L-7,269 L-7,268 L-6,268 L-6,267 L-5,267 L-5,266 L-4,266 L-4,265 L-3,265 L-3,263 L-2,263 L-2,262 L-1,262 L-1,261 L0,261 L0,260 L1,260 L1,259 L2,259 L2,258 L3,258 L3,257 L4,257 L4,256 L5,256 L5,255 L6,255 L6,253 L7,253 L7,252 L8,252 L8,251 L9,251 L9,250 L10,250 L10,248 L11,248 L11,247 L12,247 L12,246 L13,246 L13,244 L14,244 L14,243 L15,243 L15,242 L16,242 L16,240 L17,240 L17,238 L18,238 L18,236 L19,236 L19,234 L20,234 L20,232 L21,232 L21,228 L22,228 L22,214 L21,214 L21,211 L20,211 L20,209 L19,209 L19,207 L18,207 L18,206 L17,206 L17,205 L16,205 L16,204 L15,204 L15,203 L14,203 L14,202 L13,202 L13,201 L12,201 L12,200 L10,200 L10,199 L8,199 L8,198 L5,198 L5,197 L-6,197 L-6,198 L-9,198 L-9,199 L-10,199 L-10,200 L-12,200 L-12,201 L-13,201 L-13,202 L-14,202 L-14,203 L-15,203 L-15,204 L-16,204 L-16,205 L-17,205 L-17,206 L-18,206 L-18,205 L-20,205 L-20,204 L-22,204 L-22,203 L-24,203 L-24,202 L-25,202 L-25,200 L-24,200 L-24,197 L-23,197 L-23,195 L-22,195 L-22,193 L-21,193 L-21,191 L-20,191 L-20,190 L-19,190 L-19,188 L-18,188 L-18,187 L-17,187 L-17,186 L-16,186 L-16,185 L-15,185 L-15,184 L-14,184 L-14,183 L-13,183 L-13,182 L-11,182 L-11,181 L-10,181 L-10,180 L-8,180 L-8,179 L-6,179 L-6,178 L-4,178 L-4,177 L-1,177 L-1,176 L17,176 L17,177 L21,177 L21,178 L24,178 L24,179 L26,179 L26,180 L28,180 L28,181 L30,181 L30,182 L32,182 L32,183 L34,183 L34,184 L35,184 L35,185 L37,185 L37,186 L39,186 L39,170 L38,170 L38,163 L37,163 L37,159 L36,159 L36,156 L35,156 L35,154 L34,154 L34,152 L33,152 L33,150 L32,150 L32,148 L31,148 L31,146 L30,146 L30,145 L29,145 L29,144 L28,144 L28,143 L27,143 L27,141 L26,141 L26,140 L25,140 L25,139 L24,139 L24,138 L22,138 L22,137 L21,137 L21,136 L20,136 L20,135 L19,135 L19,134 L17,134 L17,133 L15,133 L15,132 L13,132 L13,131 L11,131 L11,130 L9,130 L9,129 L5,129 L5,128 L-11,128 L-11,129 L-14,129 L-14,130 L-17,130 L-17,131 L-19,131 L-19,132 L-21,132 L-21,133 L-22,133 L-22,134 L-24,134 L-24,135 L-25,135 L-25,134 L-29,134 L-29,133 L-31,133 L-31,130 L-30,130 L-30,127 L-29,127 L-29,125 L-28,125 L-28,124 L-27,124 L-27,122 L-26,122 L-26,121 L-25,121 L-25,119 L-24,119 L-24,118 L-23,118 L-23,117 L-22,117 L-22,116 L-21,116 L-21,115 L-20,115 L-20,114 L-19,114 L-19,113 L-17,113 L-17,112 L-16,112 L-16,111 L-14,111 L-14,110 L-12,110 L-12,109 L-10,109 L-10,108 L-8,108 L-8,107 L-4,107 L-4,106 L15,106 L15,107 L18,107 L18,108 L22,108 L22,109 L24,109 L24,110 L26,110 L26,111 L29,111 L29,112 L31,112 L31,113 L32,113 L32,114 L34,114 L34,115 L36,115 L36,95 L37,95 L37,87 L38,87 L38,83 L39,83 L39,79 L40,79 L40,76 L41,76 L41,74 L42,74 L42,72 L43,72 L43,70 L44,70 L44,68 L45,68 L45,66 L46,66 L46,64 L47,64 L47,63 L48,63 L48,62 L49,62 L49,60 L50,60 L50,59 L51,59 L51,58 L52,58 L52,56 L53,56 L53,55 L54,55 L54,54 L55,54 L55,53 L56,53 L56,51 L57,51 L57,50 L58,50 L58,49 L59,49 L59,48 L60,48 L60,47 L61,47 L61,46 L62,46 L62,44 L63,44 L63,43 L64,43 L64,42 L65,42 L65,41 L66,41 L66,40 L67,40 L67,39 L68,39 L68,38 L69,38 L69,37 L70,37 L70,35 L71,35 L71,34 L72,34 L72,33 L73,33 L73,32 L74,32 L74,31 L75,31 L75,30 L76,30 L76,29 L77,29 L77,28 L78,28 L78,27 L79,27 L79,26 L80,26 L80,25 L81,25 L81,24 L82,24 L82,23 L83,23 L83,22 L81,22 L81,23 L79,23 L79,24 L78,24 L78,25 L76,25 L76,26 L74,26 L74,27 L72,27 L72,28 L70,28 L70,29 L68,29 L68,30 L66,30 L66,31 L64,31 L64,32 L62,32 L62,33 L59,33 L59,34 L57,34 L57,35 L54,35 L54,36 L51,36 L51,37 L47,37 L47,38 L42,38 L42,39 L30,39 L30,40 L29,40 L29,39 L20,39 L20,38 L16,38 L16,37 L12,37 L12,36 L8,36 L8,35 L4,35 L4,34 L-12,34 L-12,35 L-16,35 L-16,36 L-18,36 L-18,37 L-21,37 L-21,38 L-23,38 L-23,39 L-24,39 L-24,40 L-26,40 L-26,41 L-27,41 L-27,42 L-28,42 L-28,43 L-30,43 L-30,44 L-31,44 L-31,45 L-32,45 L-32,46 L-33,46 L-33,48 L-34,48 L-34,49 L-35,49 L-35,50 L-36,50 L-36,51 L-37,51 L-37,52 L-38,52 L-38,54 L-39,54 L-39,55 L-40,55 L-40,57 L-41,57 L-41,58 L-42,58 L-42,60 L-43,60 L-43,62 L-44,62 L-44,63 L-45,63 L-45,65 L-46,65 L-46,67 L-47,67 L-47,68 L-48,68 L-48,67 L-52,67 L-52,66 L-54,66 L-54,61 L-53,61 L-53,57 L-52,57 L-52,53 L-51,53 L-51,50 L-50,50 L-50,46 L-49,46 L-49,44 L-48,44 L-48,41 L-47,41 L-47,39 L-46,39 L-46,37 L-45,37 L-45,35 L-44,35 L-44,33 L-43,33 L-43,32 L-42,32 L-42,30 L-41,30 L-41,29 L-40,29 L-40,27 L-39,27 L-39,26 L-38,26 L-38,24 L-37,24 L-37,23 L-36,23 L-36,22 L-35,22 L-35,21 L-34,21 L-34,20 L-33,20 L-33,19 L-32,19 L-32,18 L-31,18 L-31,17 L-30,17 L-30,16 L-29,16 L-29,15 L-28,15 L-28,14 L-27,14 L-27,13 L-26,13 L-26,12 L-24,12 L-24,11 L-23,11 L-23,10 L-21,10 L-21,9 L-20,9 L-20,8 L-18,8 L-18,7 L-16,7 L-16,6 L-15,6 L-15,5 L-13,5 L-13,4 L-10,4 L-10,3 L-8,3 L-8,2 L-4,2 L-4,1 L0,1 Z M83,21 L83,22 L84,22 L84,21 Z M162,80 L162,81 L161,81 L161,82 L160,82 L160,83 L159,83 L159,84 L157,84 L157,85 L156,85 L156,86 L155,86 L155,87 L154,87 L154,88 L152,88 L152,89 L151,89 L151,90 L150,90 L150,91 L149,91 L149,92 L147,92 L147,93 L146,93 L146,94 L145,94 L145,95 L144,95 L144,96 L142,96 L142,97 L141,97 L141,98 L140,98 L140,99 L139,99 L139,100 L137,100 L137,101 L136,101 L136,102 L135,102 L135,103 L134,103 L134,104 L132,104 L132,105 L131,105 L131,106 L130,106 L130,107 L129,107 L129,108 L127,108 L127,109 L126,109 L126,110 L125,110 L125,111 L124,111 L124,112 L122,112 L122,113 L121,113 L121,114 L120,114 L120,115 L119,115 L119,116 L117,116 L117,117 L116,117 L116,118 L115,118 L115,119 L114,119 L114,120 L112,120 L112,159 L113,159 L113,160 L112,160 L112,177 L114,177 L114,176 L115,176 L115,175 L117,175 L117,174 L118,174 L118,173 L119,173 L119,172 L121,172 L121,171 L122,171 L122,170 L124,170 L124,169 L125,169 L125,168 L127,168 L127,167 L128,167 L128,166 L129,166 L129,165 L131,165 L131,164 L132,164 L132,163 L134,163 L134,162 L135,162 L135,161 L136,161 L136,160 L138,160 L138,159 L139,159 L139,158 L141,158 L141,157 L142,157 L142,156 L143,156 L143,155 L145,155 L145,154 L146,154 L146,153 L148,153 L148,152 L149,152 L149,151 L150,151 L150,150 L152,150 L152,149 L153,149 L153,148 L155,148 L155,147 L156,147 L156,146 L157,146 L157,145 L159,145 L159,144 L160,144 L160,143 L162,143 L162,142 L163,142 L163,141 L164,141 L164,140 L166,140 L166,139 L167,139 L167,138 L169,138 L169,137 L170,137 L170,136 L171,136 L171,135 L173,135 L173,134 L174,134 L174,133 L176,133 L176,132 L177,132 L177,131 L178,131 L178,130 L180,130 L180,129 L181,129 L181,128 L183,128 L183,127 L184,127 L184,126 L185,126 L185,125 L187,125 L187,124 L188,124 L188,123 L190,123 L190,122 L191,122 L191,121 L192,121 L192,120 L194,120 L194,119 L195,119 L195,118 L196,118 L196,117 L195,117 L195,115 L194,115 L194,114 L193,114 L193,113 L192,113 L192,112 L191,112 L191,111 L190,111 L190,110 L189,110 L189,108 L188,108 L188,107 L187,107 L187,106 L186,106 L186,105 L185,105 L185,104 L184,104 L184,103 L183,103 L183,102 L182,102 L182,100 L181,100 L181,99 L180,99 L180,98 L179,98 L179,97 L178,97 L178,96 L177,96 L177,95 L176,95 L176,94 L175,94 L175,92 L174,92 L174,91 L173,91 L173,90 L172,90 L172,89 L171,89 L171,88 L170,88 L170,87 L169,87 L169,85 L168,85 L168,84 L167,84 L167,83 L166,83 L166,82 L165,82 L165,81 L164,81 L164,80 Z M36,115 L36,116 L37,116 L37,115 Z M112,189 L112,197 L111,197 L111,205 L110,205 L110,210 L109,210 L109,213 L108,213 L108,216 L107,216 L107,219 L106,219 L106,222 L105,222 L105,224 L104,224 L104,226 L103,226 L103,228 L102,228 L102,229 L101,229 L101,231 L100,231 L100,232 L99,232 L99,234 L98,234 L98,235 L97,235 L97,236 L96,236 L96,237 L95,237 L95,239 L94,239 L94,240 L93,240 L93,241 L92,241 L92,242 L91,242 L91,243 L90,243 L90,244 L89,244 L89,245 L88,245 L88,246 L87,246 L87,247 L86,247 L86,248 L84,248 L84,249 L83,249 L83,250 L82,250 L82,251 L81,251 L81,252 L79,252 L79,253 L78,253 L78,254 L77,254 L77,255 L80,255 L80,256 L94,256 L94,257 L103,257 L103,258 L111,258 L111,259 L116,259 L116,260 L121,260 L121,261 L125,261 L125,262 L128,262 L128,263 L131,263 L131,264 L134,264 L134,265 L136,265 L136,266 L139,266 L139,267 L141,267 L141,268 L144,268 L144,269 L146,269 L146,270 L148,270 L148,271 L150,271 L150,272 L152,272 L152,273 L154,273 L154,272 L155,272 L155,271 L156,271 L156,270 L157,270 L157,269 L158,269 L158,267 L159,267 L159,266 L160,266 L160,265 L161,265 L161,264 L162,264 L162,263 L163,263 L163,262 L164,262 L164,261 L165,261 L165,260 L166,260 L166,258 L167,258 L167,257 L168,257 L168,256 L169,256 L169,255 L170,255 L170,254 L171,254 L171,253 L172,253 L172,252 L173,252 L173,250 L174,250 L174,249 L175,249 L175,248 L176,248 L176,247 L177,247 L177,246 L178,246 L178,245 L179,245 L179,244 L180,244 L180,243 L181,243 L181,241 L180,241 L180,239 L179,239 L179,237 L178,237 L178,236 L177,236 L177,234 L176,234 L176,233 L175,233 L175,231 L174,231 L174,230 L173,230 L173,229 L172,229 L172,227 L171,227 L171,226 L170,226 L170,225 L169,225 L169,223 L168,223 L168,222 L167,222 L167,221 L166,221 L166,219 L165,219 L165,218 L164,218 L164,217 L163,217 L163,216 L162,216 L162,215 L161,215 L161,213 L160,213 L160,212 L159,212 L159,211 L158,211 L158,210 L157,210 L157,209 L156,209 L156,208 L155,208 L155,207 L154,207 L154,206 L153,206 L153,205 L151,205 L151,204 L150,204 L150,203 L149,203 L149,202 L148,202 L148,201 L146,201 L146,200 L145,200 L145,199 L143,199 L143,198 L142,198 L142,197 L140,197 L140,196 L138,196 L138,195 L136,195 L136,194 L134,194 L134,193 L131,193 L131,192 L128,192 L128,191 L125,191 L125,190 L120,190 L120,189 Z M1,279 L1,280 L2,280 L2,279 Z " fill="#000000" transform="translate(861,325)"/>
<path d="M0,0 L9,0 L9,1 L12,1 L12,2 L15,2 L15,3 L17,3 L17,4 L18,4 L18,5 L20,5 L20,6 L21,6 L21,7 L22,7 L22,8 L23,8 L23,9 L24,9 L24,11 L25,11 L25,12 L26,12 L26,14 L27,14 L27,16 L28,16 L28,21 L29,21 L29,28 L30,28 L30,34 L31,34 L31,37 L32,37 L32,40 L33,40 L33,41 L34,41 L34,43 L35,43 L35,44 L36,44 L36,46 L37,46 L37,47 L38,47 L38,48 L39,48 L39,49 L40,49 L40,50 L41,50 L41,51 L42,51 L42,52 L43,52 L43,53 L45,53 L45,54 L46,54 L46,55 L48,55 L48,56 L49,56 L49,57 L52,57 L52,58 L56,58 L56,59 L948,59 L948,58 L951,58 L951,57 L954,57 L954,56 L956,56 L956,55 L957,55 L957,54 L959,54 L959,53 L960,53 L960,52 L961,52 L961,51 L963,51 L963,50 L964,50 L964,49 L965,49 L965,48 L966,48 L966,47 L967,47 L967,45 L968,45 L968,44 L969,44 L969,42 L970,42 L970,40 L971,40 L971,39 L972,39 L972,35 L973,35 L973,33 L974,33 L974,23 L975,23 L975,18 L976,18 L976,14 L977,14 L977,13 L978,13 L978,11 L979,11 L979,10 L980,10 L980,9 L981,9 L981,7 L983,7 L983,6 L984,6 L984,5 L985,5 L985,4 L986,4 L986,3 L989,3 L989,2 L991,2 L991,1 L994,1 L994,0 L1004,0 L1004,1 L1007,1 L1007,2 L1009,2 L1009,3 L1011,3 L1011,4 L1013,4 L1013,5 L1014,5 L1014,6 L1015,6 L1015,7 L1017,7 L1017,9 L1018,9 L1018,10 L1019,10 L1019,12 L1020,12 L1020,13 L1021,13 L1021,15 L1022,15 L1022,19 L1023,19 L1023,24 L1024,24 L1024,25 L1023,25 L1023,36 L1022,36 L1022,41 L1023,41 L1023,43 L1022,43 L1022,42 L1021,42 L1021,46 L1020,46 L1020,51 L1019,51 L1019,52 L1018,52 L1018,55 L1017,55 L1017,58 L1016,58 L1016,60 L1015,60 L1015,62 L1014,62 L1014,64 L1013,64 L1013,66 L1012,66 L1012,67 L1011,67 L1011,69 L1010,69 L1010,70 L1009,70 L1009,72 L1008,72 L1008,73 L1007,73 L1007,75 L1006,75 L1006,76 L1005,76 L1005,77 L1004,77 L1004,78 L1003,78 L1003,79 L1002,79 L1002,80 L1001,80 L1001,82 L1000,82 L1000,83 L999,83 L999,84 L998,84 L998,85 L997,85 L997,86 L995,86 L995,87 L994,87 L994,88 L993,88 L993,89 L992,89 L992,90 L991,90 L991,91 L990,91 L990,92 L988,92 L988,93 L987,93 L987,94 L985,94 L985,95 L984,95 L984,96 L982,96 L982,97 L981,97 L981,98 L979,98 L979,99 L977,99 L977,100 L975,100 L975,101 L973,101 L973,102 L970,102 L970,103 L967,103 L967,104 L965,104 L965,106 L964,106 L964,105 L961,105 L961,106 L957,106 L957,107 L951,107 L951,108 L49,108 L49,107 L47,107 L47,106 L43,106 L43,105 L39,105 L39,104 L36,104 L36,103 L33,103 L33,102 L30,102 L30,101 L29,101 L29,100 L26,100 L26,99 L25,99 L25,98 L23,98 L23,97 L21,97 L21,96 L19,96 L19,95 L18,95 L18,94 L16,94 L16,93 L15,93 L15,92 L14,92 L14,91 L13,91 L13,90 L11,90 L11,89 L10,89 L10,88 L9,88 L9,87 L8,87 L8,86 L7,86 L7,85 L6,85 L6,84 L5,84 L5,83 L3,83 L3,81 L2,81 L2,80 L1,80 L1,79 L0,79 L0,78 L-1,78 L-1,77 L-2,77 L-2,76 L-3,76 L-3,74 L-4,74 L-4,73 L-5,73 L-5,72 L-6,72 L-6,70 L-7,70 L-7,69 L-8,69 L-8,67 L-9,67 L-9,65 L-10,65 L-10,63 L-11,63 L-11,61 L-12,61 L-12,59 L-14,59 L-14,57 L-13,57 L-13,56 L-14,56 L-14,54 L-15,54 L-15,53 L-16,53 L-16,47 L-17,47 L-17,45 L-18,45 L-18,38 L-19,38 L-19,35 L-20,35 L-20,20 L-19,20 L-19,17 L-18,17 L-18,14 L-17,14 L-17,13 L-16,13 L-16,11 L-15,11 L-15,9 L-14,9 L-14,8 L-13,8 L-13,7 L-12,7 L-12,6 L-11,6 L-11,5 L-9,5 L-9,4 L-8,4 L-8,3 L-6,3 L-6,2 L-3,2 L-3,1 L0,1 Z " fill="#000000" transform="translate(300,665)"/>
</svg>
